<svg xmlns="http://www.w3.org/2000/svg" viewBox="0 0 1888 1888">
  <rect width="1888" height="1888" fill="#0a0b09"/>
  <g transform="translate(31,1744) scale(1,-1)">
    <path transform="translate(840,0)" d="M498 -20Q347 -20 256.0 20.5Q165 61 123.0 149.5Q81 238 76 382Q73 466 71.5 573.5Q70 681 70.0 795.0Q70 909 71.5 1015.0Q73 1121 76 1202Q82 1354 125.5 1446.0Q169 1538 259.5 1579.0Q350 1620 498 1620Q708 1620 804.5 1527.5Q901 1435 914 1220Q917 1174 917.0 1110.5Q917 1047 914 1000H614Q617 1056 617.0 1138.5Q617 1221 614 1276Q611 1324 581.0 1350.0Q551 1376 498 1376Q440 1376 409.5 1350.0Q379 1324 376 1276Q370 1171 367.0 1049.5Q364 928 364.0 801.0Q364 674 367.0 552.5Q370 431 376 326Q379 277 409.5 250.5Q440 224 498 224Q555 224 589.5 250.5Q624 277 628 326Q630 349 630.5 386.5Q631 424 630.5 461.5Q630 499 628 522H518V782H920Q925 691 924.0 582.5Q923 474 918 382Q908 166 810.5 73.0Q713 -20 498 -20Z" fill="#a8f53e"/>
    <path d="M80 0V1600H466Q690 1600 789.5 1509.5Q889 1419 896 1210Q898 1154 898.5 1112.0Q899 1070 898.5 1028.0Q898 986 896 930Q892 800 852.5 717.0Q813 634 730 590L918 0H600L448 540H380V0ZM380 804H466Q529 804 561.0 833.0Q593 862 596 914Q599 963 600.0 1016.5Q601 1070 600.0 1123.5Q599 1177 596 1226Q593 1279 561.0 1307.5Q529 1336 466 1336H380Z" fill="#e9e7da"/>
  </g>
</svg>